# xmcd
#
# Track frame offsets:
#       150
#       27450
#       46652
#       66780
#       90335
#       114072
#       140020
#       156955
#
# Disc length: 2308 seconds
#
# Revision: 24
# Processed by: cddbd v1.5.2PL0 Copyright (c) Steve Scherf et al.
# Submitted via: WaveLab 6.00a
#
DISCID=5d090208
DTITLE=Shahram Shabpareh - Baghe Alef Ba
DYEAR=1989
DGENRE=Persian Pop 80's
TTITLE0=Baghe Alef Ba
TTITLE1=Yare bee vafa
TTITLE2=Hame donbale man
TTITLE3=Yare Shirin Sokhanam
TTITLE4=Ghasam
TTITLE5=Kabutar
TTITLE6=Khab
TTITLE7=Baghe Alef ba Instrumental
EXTD=
EXTT0=
EXTT1=
EXTT2=
EXTT3=
EXTT4=
EXTT5=
EXTT6=
EXTT7=
PLAYORDER=
